<svg xmlns="http://www.w3.org/2000/svg" xmlns:xlink="http://www.w3.org/1999/xlink" viewBox="0 0 142.92 227.93"><defs><style>.cls-1,.cls-2,.cls-3{fill-rule:evenodd;}.cls-1{fill:url(#linear-gradient);}.cls-2{fill:#0372ff;}.cls-3{fill:url(#linear-gradient-2);}</style><linearGradient id="linear-gradient" y1="74.1" x2="142.92" y2="74.1" gradientUnits="userSpaceOnUse"><stop offset="0" stop-color="#cce0f4"/><stop offset="0" stop-color="#c3d8ed"/><stop offset="0" stop-color="#a9c2d9"/><stop offset="0" stop-color="#809fb8"/><stop offset="0" stop-color="#476f8c"/><stop offset="0" stop-color="#0b3c5d"/><stop offset="0.93" stop-color="#2563eb"/></linearGradient><linearGradient id="linear-gradient-2" x1="41.38" y1="142.33" x2="142.89" y2="142.33" xlink:href="#linear-gradient"/></defs><title>Finovate SVG</title><g id="Layer_2" data-name="Layer 2"><g id="Layer_1-2" data-name="Layer 1"><path class="cls-1" d="M10.63,76,96.57,6.35a28.43,28.43,0,1,1,35.72,44.24L46.35,120.1a37.69,37.69,0,0,0-13.9,28.09l-26-32.13-.16-.15A28.33,28.33,0,0,1,10.63,76Z"/><path class="cls-2" d="M92.68,177.34a28.43,28.43,0,1,1-4.34,40,28.32,28.32,0,0,1,4.34-40Z"/><path class="cls-3" d="M96.56,91.13a28.37,28.37,0,0,1,35.73,44.09L87.75,171.4A35.75,35.75,0,0,0,74.3,199.94L47.84,167.21H47.7a28.66,28.66,0,0,1,4.19-40.12h.17l44.47-36Z"/></g></g></svg>