<svg xmlns="http://www.w3.org/2000/svg" xmlns:xlink="http://www.w3.org/1999/xlink" viewBox="0 0 633.92 207.2"><defs><style>.cls-1,.cls-2,.cls-3{fill-rule:evenodd;}.cls-1{fill:url(#linear-gradient);}.cls-2{fill:#0372ff;}.cls-3{fill:url(#linear-gradient-2);}.cls-4{font-size:58.66px;fill:#fff;font-family:GabrielSans-Trial-Bd, Gabriel Sans-Trial;}.cls-5{letter-spacing:0.01em;}.cls-6{letter-spacing:0em;}.cls-7{letter-spacing:-0.03em;}.cls-8{letter-spacing:-0.09em;}.cls-9{letter-spacing:-0.1em;}.cls-10{letter-spacing:0.03em;}.cls-11{letter-spacing:0.02em;}.cls-12{letter-spacing:0.01em;}.cls-13{letter-spacing:0em;}.cls-14{letter-spacing:-0.1em;}.cls-15{letter-spacing:-0.09em;}.cls-16{letter-spacing:0.01em;}</style><linearGradient id="linear-gradient" y1="67.36" x2="129.92" y2="67.36" gradientUnits="userSpaceOnUse"><stop offset="0" stop-color="#cce0f4"/><stop offset="0" stop-color="#c3d8ed"/><stop offset="0" stop-color="#a9c2d9"/><stop offset="0" stop-color="#809fb8"/><stop offset="0" stop-color="#476f8c"/><stop offset="0" stop-color="#0b3c5d"/><stop offset="0.93" stop-color="#2563eb"/></linearGradient><linearGradient id="linear-gradient-2" x1="37.62" y1="129.38" x2="129.89" y2="129.38" xlink:href="#linear-gradient"/></defs><title>logo-footer</title><g id="Layer_2" data-name="Layer 2"><g id="Layer_1-2" data-name="Layer 1"><path class="cls-1" d="M9.66,69.09,87.78,5.78A25.84,25.84,0,1,1,120.25,46L42.13,109.17A34.28,34.28,0,0,0,29.5,134.71L5.86,105.5l-.14-.13A25.75,25.75,0,0,1,9.66,69.09Z"/><path class="cls-2" d="M84.25,161.21a25.84,25.84,0,1,1-3.94,36.41,25.74,25.74,0,0,1,3.94-36.41Z"/><path class="cls-3" d="M87.78,82.84a25.79,25.79,0,1,1,32.48,40.08L79.77,155.8a32.51,32.51,0,0,0-12.23,26L43.49,152h-.13a26.05,26.05,0,0,1,3.81-36.47h.16L87.75,82.84Z"/><text class="cls-4" transform="translate(153.78 67.32)"><tspan class="cls-5">F</tspan><tspan class="cls-6" x="38.07" y="0">IN</tspan><tspan class="cls-7" x="101.31" y="0">O</tspan><tspan class="cls-8" x="146.53" y="0">V</tspan><tspan class="cls-9" x="189.88" y="0">A</tspan><tspan x="231.3" y="0">TE</tspan></text><text class="cls-4" transform="translate(153.9 129.08)">RESE<tspan class="cls-5" x="163.02" y="0">A</tspan><tspan class="cls-10" x="211.12" y="0">RC</tspan><tspan x="300.46" y="0">H</tspan></text><text class="cls-4" transform="translate(153.9 188.9)">C<tspan class="cls-11" x="43.29" y="0">O</tspan><tspan class="cls-12" x="91.63" y="0">N</tspan><tspan class="cls-13" x="140.02" y="0">SU</tspan><tspan class="cls-14" x="233.47" y="0">L</tspan><tspan class="cls-15" x="264.79" y="0">T</tspan><tspan class="cls-16" x="299.81" y="0">A</tspan><tspan class="cls-6" x="347.97" y="0">NTS</tspan></text></g></g></svg>