<svg xmlns="http://www.w3.org/2000/svg" xmlns:xlink="http://www.w3.org/1999/xlink" width="242" zoomAndPan="magnify" viewBox="0 0 181.5 43.499998" height="58" preserveAspectRatio="xMidYMid meet" version="1.0"><defs><g/><clipPath id="25a3ba9807"><path d="M 12.246094 4.300781 L 38.5 4.300781 L 38.5 29.679688 L 12.246094 29.679688 Z M 12.246094 4.300781 " clip-rule="nonzero"/></clipPath></defs><g clip-path="url(#25a3ba9807)"><path fill="#1932fc" d="M 12.246094 4.300781 L 38.515625 4.300781 L 38.515625 29.679688 L 12.246094 29.679688 Z M 12.246094 4.300781 " fill-opacity="1" fill-rule="nonzero"/></g><g fill="#ffffff" fill-opacity="1"><g transform="translate(16.131643, 35.896304)"><g><path d="M 2.59375 -24.15625 L 22.125 -24.15625 L 22.125 -18.359375 L 10.359375 -18.359375 L 10.359375 -14.21875 L 20.46875 -14.21875 L 20.46875 -8.671875 L 10.359375 -8.671875 L 10.359375 0 L 2.59375 0 Z M 2.59375 -24.15625 "/></g></g></g><g fill="#ffffff" fill-opacity="1"><g transform="translate(38.260148, 35.896304)"><g><path d="M 14.109375 -24.578125 C 17.691406 -24.578125 20.523438 -23.679688 22.609375 -21.890625 C 24.691406 -20.097656 25.734375 -17.539062 25.734375 -14.21875 L 18.328125 -14.21875 C 18.328125 -15.625 17.957031 -16.734375 17.21875 -17.546875 C 16.476562 -18.367188 15.429688 -18.78125 14.078125 -18.78125 C 12.503906 -18.78125 11.347656 -18.285156 10.609375 -17.296875 C 9.878906 -16.316406 9.515625 -14.953125 9.515625 -13.203125 L 9.515625 -10.953125 C 9.515625 -9.222656 9.878906 -7.859375 10.609375 -6.859375 C 11.347656 -5.867188 12.484375 -5.375 14.015625 -5.375 C 15.503906 -5.375 16.632812 -5.757812 17.40625 -6.53125 C 18.1875 -7.300781 18.578125 -8.390625 18.578125 -9.796875 L 25.734375 -9.796875 C 25.734375 -6.492188 24.71875 -3.960938 22.6875 -2.203125 C 20.664062 -0.453125 17.804688 0.421875 14.109375 0.421875 C 9.992188 0.421875 6.875 -0.628906 4.75 -2.734375 C 2.632812 -4.835938 1.578125 -7.953125 1.578125 -12.078125 C 1.578125 -16.191406 2.632812 -19.300781 4.75 -21.40625 C 6.875 -23.519531 9.992188 -24.578125 14.109375 -24.578125 Z M 14.109375 -24.578125 "/></g></g></g><g fill="#ffffff" fill-opacity="1"><g transform="translate(68.174149, 21.436061)"><g><path d="M 2.546875 -5.9375 L 2.546875 -4 L 5.921875 -4 L 5.921875 -2.65625 L 2.546875 -2.65625 L 2.546875 0 L 0.859375 0 L 0.859375 -7.28125 L 6.375 -7.28125 L 6.375 -5.9375 Z M 2.546875 -5.9375 "/></g></g></g><g fill="#ffffff" fill-opacity="1"><g transform="translate(74.822168, 21.436061)"><g><path d="M 0.75 -5.59375 L 2.375 -5.59375 L 2.375 0 L 0.75 0 Z M 1.5625 -6.375 C 1.269531 -6.375 1.03125 -6.460938 0.84375 -6.640625 C 0.65625 -6.816406 0.5625 -7.03125 0.5625 -7.28125 C 0.5625 -7.539062 0.65625 -7.753906 0.84375 -7.921875 C 1.03125 -8.097656 1.269531 -8.1875 1.5625 -8.1875 C 1.863281 -8.1875 2.109375 -8.101562 2.296875 -7.9375 C 2.484375 -7.769531 2.578125 -7.5625 2.578125 -7.3125 C 2.578125 -7.039062 2.484375 -6.816406 2.296875 -6.640625 C 2.109375 -6.460938 1.863281 -6.375 1.5625 -6.375 Z M 1.5625 -6.375 "/></g></g></g><g fill="#ffffff" fill-opacity="1"><g transform="translate(77.953715, 21.436061)"><g><path d="M 4.15625 -5.6875 C 4.84375 -5.6875 5.398438 -5.476562 5.828125 -5.0625 C 6.253906 -4.644531 6.46875 -4.023438 6.46875 -3.203125 L 6.46875 0 L 4.84375 0 L 4.84375 -2.953125 C 4.84375 -3.398438 4.742188 -3.734375 4.546875 -3.953125 C 4.359375 -4.171875 4.082031 -4.28125 3.71875 -4.28125 C 3.300781 -4.28125 2.972656 -4.148438 2.734375 -3.890625 C 2.492188 -3.640625 2.375 -3.265625 2.375 -2.765625 L 2.375 0 L 0.75 0 L 0.75 -5.59375 L 2.296875 -5.59375 L 2.296875 -4.9375 C 2.515625 -5.175781 2.78125 -5.359375 3.09375 -5.484375 C 3.414062 -5.617188 3.769531 -5.6875 4.15625 -5.6875 Z M 4.15625 -5.6875 "/></g></g></g><g fill="#ffffff" fill-opacity="1"><g transform="translate(85.142738, 21.436061)"><g><path d="M 6.3125 -5.59375 L 3.9375 0 L 2.265625 0 L -0.078125 -5.59375 L 1.59375 -5.59375 L 3.140625 -1.796875 L 4.75 -5.59375 Z M 6.3125 -5.59375 "/></g></g></g><g fill="#ffffff" fill-opacity="1"><g transform="translate(91.364206, 21.436061)"><g><path d="M 0.75 -5.59375 L 2.375 -5.59375 L 2.375 0 L 0.75 0 Z M 1.5625 -6.375 C 1.269531 -6.375 1.03125 -6.460938 0.84375 -6.640625 C 0.65625 -6.816406 0.5625 -7.03125 0.5625 -7.28125 C 0.5625 -7.539062 0.65625 -7.753906 0.84375 -7.921875 C 1.03125 -8.097656 1.269531 -8.1875 1.5625 -8.1875 C 1.863281 -8.1875 2.109375 -8.101562 2.296875 -7.9375 C 2.484375 -7.769531 2.578125 -7.5625 2.578125 -7.3125 C 2.578125 -7.039062 2.484375 -6.816406 2.296875 -6.640625 C 2.109375 -6.460938 1.863281 -6.375 1.5625 -6.375 Z M 1.5625 -6.375 "/></g></g></g><g fill="#ffffff" fill-opacity="1"><g transform="translate(94.495753, 21.436061)"><g><path d="M 2.625 0.078125 C 2.164062 0.078125 1.710938 0.0195312 1.265625 -0.09375 C 0.828125 -0.207031 0.472656 -0.347656 0.203125 -0.515625 L 0.75 -1.6875 C 1 -1.53125 1.300781 -1.398438 1.65625 -1.296875 C 2.007812 -1.191406 2.351562 -1.140625 2.6875 -1.140625 C 3.375 -1.140625 3.71875 -1.3125 3.71875 -1.65625 C 3.71875 -1.8125 3.625 -1.925781 3.4375 -2 C 3.25 -2.070312 2.960938 -2.128906 2.578125 -2.171875 C 2.117188 -2.242188 1.738281 -2.320312 1.4375 -2.40625 C 1.144531 -2.5 0.890625 -2.660156 0.671875 -2.890625 C 0.453125 -3.117188 0.34375 -3.445312 0.34375 -3.875 C 0.34375 -4.226562 0.441406 -4.539062 0.640625 -4.8125 C 0.847656 -5.082031 1.148438 -5.296875 1.546875 -5.453125 C 1.941406 -5.609375 2.40625 -5.6875 2.9375 -5.6875 C 3.332031 -5.6875 3.722656 -5.640625 4.109375 -5.546875 C 4.503906 -5.460938 4.832031 -5.34375 5.09375 -5.1875 L 4.546875 -4.03125 C 4.054688 -4.3125 3.519531 -4.453125 2.9375 -4.453125 C 2.59375 -4.453125 2.332031 -4.398438 2.15625 -4.296875 C 1.976562 -4.203125 1.890625 -4.082031 1.890625 -3.9375 C 1.890625 -3.757812 1.984375 -3.632812 2.171875 -3.5625 C 2.359375 -3.5 2.65625 -3.4375 3.0625 -3.375 C 3.519531 -3.289062 3.894531 -3.207031 4.1875 -3.125 C 4.476562 -3.039062 4.734375 -2.882812 4.953125 -2.65625 C 5.171875 -2.425781 5.28125 -2.109375 5.28125 -1.703125 C 5.28125 -1.347656 5.175781 -1.035156 4.96875 -0.765625 C 4.757812 -0.492188 4.453125 -0.285156 4.046875 -0.140625 C 3.648438 0.00390625 3.175781 0.078125 2.625 0.078125 Z M 2.625 0.078125 "/></g></g></g><g fill="#ffffff" fill-opacity="1"><g transform="translate(100.020163, 21.436061)"><g><path d="M 6.234375 -2.78125 C 6.234375 -2.757812 6.222656 -2.613281 6.203125 -2.34375 L 1.96875 -2.34375 C 2.039062 -2 2.21875 -1.722656 2.5 -1.515625 C 2.789062 -1.316406 3.144531 -1.21875 3.5625 -1.21875 C 3.851562 -1.21875 4.113281 -1.257812 4.34375 -1.34375 C 4.570312 -1.4375 4.78125 -1.578125 4.96875 -1.765625 L 5.84375 -0.828125 C 5.3125 -0.222656 4.539062 0.078125 3.53125 0.078125 C 2.894531 0.078125 2.332031 -0.0390625 1.84375 -0.28125 C 1.363281 -0.53125 0.988281 -0.875 0.71875 -1.3125 C 0.457031 -1.75 0.328125 -2.242188 0.328125 -2.796875 C 0.328125 -3.347656 0.457031 -3.84375 0.71875 -4.28125 C 0.976562 -4.71875 1.335938 -5.0625 1.796875 -5.3125 C 2.253906 -5.5625 2.757812 -5.6875 3.3125 -5.6875 C 3.863281 -5.6875 4.359375 -5.566406 4.796875 -5.328125 C 5.242188 -5.085938 5.59375 -4.75 5.84375 -4.3125 C 6.101562 -3.875 6.234375 -3.363281 6.234375 -2.78125 Z M 3.328125 -4.453125 C 2.960938 -4.453125 2.65625 -4.347656 2.40625 -4.140625 C 2.15625 -3.929688 2.003906 -3.644531 1.953125 -3.28125 L 4.703125 -3.28125 C 4.648438 -3.632812 4.5 -3.914062 4.25 -4.125 C 4 -4.34375 3.691406 -4.453125 3.328125 -4.453125 Z M 3.328125 -4.453125 "/></g></g></g><g fill="#ffffff" fill-opacity="1"><g transform="translate(106.591937, 21.436061)"><g/></g></g><g fill="#ffffff" fill-opacity="1"><g transform="translate(68.174149, 31.816742)"><g><path d="M 4.34375 0.125 C 3.601562 0.125 2.929688 -0.0351562 2.328125 -0.359375 C 1.734375 -0.679688 1.265625 -1.128906 0.921875 -1.703125 C 0.578125 -2.273438 0.40625 -2.921875 0.40625 -3.640625 C 0.40625 -4.359375 0.578125 -5.003906 0.921875 -5.578125 C 1.265625 -6.148438 1.734375 -6.597656 2.328125 -6.921875 C 2.929688 -7.242188 3.609375 -7.40625 4.359375 -7.40625 C 4.992188 -7.40625 5.566406 -7.296875 6.078125 -7.078125 C 6.585938 -6.859375 7.015625 -6.539062 7.359375 -6.125 L 6.28125 -5.125 C 5.78125 -5.6875 5.164062 -5.96875 4.4375 -5.96875 C 3.988281 -5.96875 3.585938 -5.867188 3.234375 -5.671875 C 2.878906 -5.472656 2.601562 -5.195312 2.40625 -4.84375 C 2.207031 -4.488281 2.109375 -4.085938 2.109375 -3.640625 C 2.109375 -3.191406 2.207031 -2.789062 2.40625 -2.4375 C 2.601562 -2.082031 2.878906 -1.804688 3.234375 -1.609375 C 3.585938 -1.410156 3.988281 -1.3125 4.4375 -1.3125 C 5.164062 -1.3125 5.78125 -1.597656 6.28125 -2.171875 L 7.359375 -1.171875 C 7.015625 -0.753906 6.582031 -0.429688 6.0625 -0.203125 C 5.550781 0.015625 4.976562 0.125 4.34375 0.125 Z M 4.34375 0.125 "/></g></g></g><g fill="#ffffff" fill-opacity="1"><g transform="translate(75.800132, 31.816742)"><g><path d="M 3.40625 0.078125 C 2.820312 0.078125 2.296875 -0.0390625 1.828125 -0.28125 C 1.359375 -0.53125 0.988281 -0.875 0.71875 -1.3125 C 0.457031 -1.75 0.328125 -2.242188 0.328125 -2.796875 C 0.328125 -3.347656 0.457031 -3.84375 0.71875 -4.28125 C 0.988281 -4.71875 1.359375 -5.0625 1.828125 -5.3125 C 2.296875 -5.5625 2.820312 -5.6875 3.40625 -5.6875 C 4 -5.6875 4.523438 -5.5625 4.984375 -5.3125 C 5.453125 -5.0625 5.816406 -4.71875 6.078125 -4.28125 C 6.347656 -3.84375 6.484375 -3.347656 6.484375 -2.796875 C 6.484375 -2.242188 6.347656 -1.75 6.078125 -1.3125 C 5.816406 -0.875 5.453125 -0.53125 4.984375 -0.28125 C 4.523438 -0.0390625 4 0.078125 3.40625 0.078125 Z M 3.40625 -1.25 C 3.820312 -1.25 4.164062 -1.390625 4.4375 -1.671875 C 4.707031 -1.953125 4.84375 -2.328125 4.84375 -2.796875 C 4.84375 -3.265625 4.707031 -3.640625 4.4375 -3.921875 C 4.164062 -4.203125 3.820312 -4.34375 3.40625 -4.34375 C 2.988281 -4.34375 2.644531 -4.203125 2.375 -3.921875 C 2.113281 -3.640625 1.984375 -3.265625 1.984375 -2.796875 C 1.984375 -2.328125 2.113281 -1.953125 2.375 -1.671875 C 2.644531 -1.390625 2.988281 -1.25 3.40625 -1.25 Z M 3.40625 -1.25 "/></g></g></g><g fill="#ffffff" fill-opacity="1"><g transform="translate(82.614615, 31.816742)"><g><path d="M 4.15625 -5.6875 C 4.84375 -5.6875 5.398438 -5.476562 5.828125 -5.0625 C 6.253906 -4.644531 6.46875 -4.023438 6.46875 -3.203125 L 6.46875 0 L 4.84375 0 L 4.84375 -2.953125 C 4.84375 -3.398438 4.742188 -3.734375 4.546875 -3.953125 C 4.359375 -4.171875 4.082031 -4.28125 3.71875 -4.28125 C 3.300781 -4.28125 2.972656 -4.148438 2.734375 -3.890625 C 2.492188 -3.640625 2.375 -3.265625 2.375 -2.765625 L 2.375 0 L 0.75 0 L 0.75 -5.59375 L 2.296875 -5.59375 L 2.296875 -4.9375 C 2.515625 -5.175781 2.78125 -5.359375 3.09375 -5.484375 C 3.414062 -5.617188 3.769531 -5.6875 4.15625 -5.6875 Z M 4.15625 -5.6875 "/></g></g></g><g fill="#ffffff" fill-opacity="1"><g transform="translate(89.803638, 31.816742)"><g><path d="M 2.625 0.078125 C 2.164062 0.078125 1.710938 0.0195312 1.265625 -0.09375 C 0.828125 -0.207031 0.472656 -0.347656 0.203125 -0.515625 L 0.75 -1.6875 C 1 -1.53125 1.300781 -1.398438 1.65625 -1.296875 C 2.007812 -1.191406 2.351562 -1.140625 2.6875 -1.140625 C 3.375 -1.140625 3.71875 -1.3125 3.71875 -1.65625 C 3.71875 -1.8125 3.625 -1.925781 3.4375 -2 C 3.25 -2.070312 2.960938 -2.128906 2.578125 -2.171875 C 2.117188 -2.242188 1.738281 -2.320312 1.4375 -2.40625 C 1.144531 -2.5 0.890625 -2.660156 0.671875 -2.890625 C 0.453125 -3.117188 0.34375 -3.445312 0.34375 -3.875 C 0.34375 -4.226562 0.441406 -4.539062 0.640625 -4.8125 C 0.847656 -5.082031 1.148438 -5.296875 1.546875 -5.453125 C 1.941406 -5.609375 2.40625 -5.6875 2.9375 -5.6875 C 3.332031 -5.6875 3.722656 -5.640625 4.109375 -5.546875 C 4.503906 -5.460938 4.832031 -5.34375 5.09375 -5.1875 L 4.546875 -4.03125 C 4.054688 -4.3125 3.519531 -4.453125 2.9375 -4.453125 C 2.59375 -4.453125 2.332031 -4.398438 2.15625 -4.296875 C 1.976562 -4.203125 1.890625 -4.082031 1.890625 -3.9375 C 1.890625 -3.757812 1.984375 -3.632812 2.171875 -3.5625 C 2.359375 -3.5 2.65625 -3.4375 3.0625 -3.375 C 3.519531 -3.289062 3.894531 -3.207031 4.1875 -3.125 C 4.476562 -3.039062 4.734375 -2.882812 4.953125 -2.65625 C 5.171875 -2.425781 5.28125 -2.109375 5.28125 -1.703125 C 5.28125 -1.347656 5.175781 -1.035156 4.96875 -0.765625 C 4.757812 -0.492188 4.453125 -0.285156 4.046875 -0.140625 C 3.648438 0.00390625 3.175781 0.078125 2.625 0.078125 Z M 2.625 0.078125 "/></g></g></g><g fill="#ffffff" fill-opacity="1"><g transform="translate(95.328048, 31.816742)"><g><path d="M 6.390625 -5.59375 L 6.390625 0 L 4.84375 0 L 4.84375 -0.671875 C 4.632812 -0.421875 4.378906 -0.234375 4.078125 -0.109375 C 3.773438 0.015625 3.453125 0.078125 3.109375 0.078125 C 2.378906 0.078125 1.796875 -0.128906 1.359375 -0.546875 C 0.929688 -0.972656 0.71875 -1.601562 0.71875 -2.4375 L 0.71875 -5.59375 L 2.34375 -5.59375 L 2.34375 -2.671875 C 2.34375 -1.773438 2.71875 -1.328125 3.46875 -1.328125 C 3.863281 -1.328125 4.175781 -1.453125 4.40625 -1.703125 C 4.644531 -1.953125 4.765625 -2.328125 4.765625 -2.828125 L 4.765625 -5.59375 Z M 6.390625 -5.59375 "/></g></g></g><g fill="#ffffff" fill-opacity="1"><g transform="translate(102.475458, 31.816742)"><g><path d="M 0.75 -7.71875 L 2.375 -7.71875 L 2.375 0 L 0.75 0 Z M 0.75 -7.71875 "/></g></g></g><g fill="#ffffff" fill-opacity="1"><g transform="translate(105.607004, 31.816742)"><g><path d="M 4.359375 -0.265625 C 4.203125 -0.148438 4.003906 -0.0625 3.765625 0 C 3.535156 0.0507812 3.289062 0.078125 3.03125 0.078125 C 2.375 0.078125 1.863281 -0.0859375 1.5 -0.421875 C 1.132812 -0.765625 0.953125 -1.265625 0.953125 -1.921875 L 0.953125 -4.21875 L 0.078125 -4.21875 L 0.078125 -5.46875 L 0.953125 -5.46875 L 0.953125 -6.84375 L 2.578125 -6.84375 L 2.578125 -5.46875 L 3.96875 -5.46875 L 3.96875 -4.21875 L 2.578125 -4.21875 L 2.578125 -1.953125 C 2.578125 -1.710938 2.632812 -1.523438 2.75 -1.390625 C 2.875 -1.265625 3.046875 -1.203125 3.265625 -1.203125 C 3.523438 -1.203125 3.742188 -1.273438 3.921875 -1.421875 Z M 4.359375 -0.265625 "/></g></g></g><g fill="#ffffff" fill-opacity="1"><g transform="translate(110.132656, 31.816742)"><g><path d="M 0.75 -5.59375 L 2.375 -5.59375 L 2.375 0 L 0.75 0 Z M 1.5625 -6.375 C 1.269531 -6.375 1.03125 -6.460938 0.84375 -6.640625 C 0.65625 -6.816406 0.5625 -7.03125 0.5625 -7.28125 C 0.5625 -7.539062 0.65625 -7.753906 0.84375 -7.921875 C 1.03125 -8.097656 1.269531 -8.1875 1.5625 -8.1875 C 1.863281 -8.1875 2.109375 -8.101562 2.296875 -7.9375 C 2.484375 -7.769531 2.578125 -7.5625 2.578125 -7.3125 C 2.578125 -7.039062 2.484375 -6.816406 2.296875 -6.640625 C 2.109375 -6.460938 1.863281 -6.375 1.5625 -6.375 Z M 1.5625 -6.375 "/></g></g></g><g fill="#ffffff" fill-opacity="1"><g transform="translate(113.264203, 31.816742)"><g><path d="M 4.15625 -5.6875 C 4.84375 -5.6875 5.398438 -5.476562 5.828125 -5.0625 C 6.253906 -4.644531 6.46875 -4.023438 6.46875 -3.203125 L 6.46875 0 L 4.84375 0 L 4.84375 -2.953125 C 4.84375 -3.398438 4.742188 -3.734375 4.546875 -3.953125 C 4.359375 -4.171875 4.082031 -4.28125 3.71875 -4.28125 C 3.300781 -4.28125 2.972656 -4.148438 2.734375 -3.890625 C 2.492188 -3.640625 2.375 -3.265625 2.375 -2.765625 L 2.375 0 L 0.75 0 L 0.75 -5.59375 L 2.296875 -5.59375 L 2.296875 -4.9375 C 2.515625 -5.175781 2.78125 -5.359375 3.09375 -5.484375 C 3.414062 -5.617188 3.769531 -5.6875 4.15625 -5.6875 Z M 4.15625 -5.6875 "/></g></g></g><g fill="#ffffff" fill-opacity="1"><g transform="translate(120.453226, 31.816742)"><g><path d="M 6.53125 -5.59375 L 6.53125 -0.9375 C 6.53125 0.09375 6.257812 0.859375 5.71875 1.359375 C 5.1875 1.859375 4.40625 2.109375 3.375 2.109375 C 2.84375 2.109375 2.332031 2.039062 1.84375 1.90625 C 1.351562 1.769531 0.953125 1.578125 0.640625 1.328125 L 1.28125 0.171875 C 1.519531 0.359375 1.816406 0.507812 2.171875 0.625 C 2.535156 0.738281 2.894531 0.796875 3.25 0.796875 C 3.8125 0.796875 4.226562 0.671875 4.5 0.421875 C 4.769531 0.171875 4.90625 -0.210938 4.90625 -0.734375 L 4.90625 -0.96875 C 4.476562 -0.5 3.882812 -0.265625 3.125 -0.265625 C 2.613281 -0.265625 2.144531 -0.378906 1.71875 -0.609375 C 1.289062 -0.835938 0.953125 -1.15625 0.703125 -1.5625 C 0.453125 -1.96875 0.328125 -2.4375 0.328125 -2.96875 C 0.328125 -3.507812 0.453125 -3.984375 0.703125 -4.390625 C 0.953125 -4.796875 1.289062 -5.113281 1.71875 -5.34375 C 2.144531 -5.570312 2.613281 -5.6875 3.125 -5.6875 C 3.9375 -5.6875 4.554688 -5.414062 4.984375 -4.875 L 4.984375 -5.59375 Z M 3.453125 -1.609375 C 3.878906 -1.609375 4.226562 -1.734375 4.5 -1.984375 C 4.78125 -2.234375 4.921875 -2.5625 4.921875 -2.96875 C 4.921875 -3.382812 4.78125 -3.71875 4.5 -3.96875 C 4.226562 -4.21875 3.878906 -4.34375 3.453125 -4.34375 C 3.023438 -4.34375 2.671875 -4.21875 2.390625 -3.96875 C 2.117188 -3.71875 1.984375 -3.382812 1.984375 -2.96875 C 1.984375 -2.5625 2.117188 -2.234375 2.390625 -1.984375 C 2.671875 -1.734375 3.023438 -1.609375 3.453125 -1.609375 Z M 3.453125 -1.609375 "/></g></g></g></svg>